# xmcd CD database file
#
# Track frame offsets:
#	150
#	14062
#	25775
#	37865
#	50165
#	64315
#	75218
#	88954
#	101688
#	115154
#	126721
#	139889
#	153289
#	166121
#	177521
#	189369
#	202170
#	215927
#	228371
#	239879
#	253042
#
# Disc length: 3465 seconds
#
# Revision: 0
# Processed by: cddbd v1.5.2PL0 Copyright (c) Steve Scherf et al.
# Submitted via: CDex 1.51
#
DISCID=390d8715
DTITLE=Smiley Burnette - Gentle Genius Of Country Music
DYEAR=1900
DGENRE=Country
TTITLE0=Swamp Woman Blues
TTITLE1=Catfish, Take A Look At That Worm
TTITLE2=Ten Gallon Hat
TTITLE3=Foggy, Foggy Dew
TTITLE4=Peg Leg Jack
TTITLE5=Steamboat Bill
TTITLE6=Down In The Cane Brake
TTITLE7=Uncle Fraley's Formula
TTITLE8=Hominy Grits
TTITLE9=Do You Want My Heart
TTITLE10=It's My Lazy Day
TTITLE11=House Trailer Blues
TTITLE12=That's Why I'm At This Bar Tonight
TTITLE13=I'm Not The Forgetting Kind
TTITLE14=Cool Water
TTITLE15=He Was A Travelin' Man
TTITLE16=Mama Don't Allow It(Mama Don't Like Music)
TTITLE17=I'm A Strager Here Myself
TTITLE18=Lawyer Skinner
TTITLE19=I Hope You're Having Fun Hurting Me
TTITLE20=Uncle Noah's Ark
EXTD=
EXTT0=
EXTT1=
EXTT2=
EXTT3=
EXTT4=
EXTT5=
EXTT6=
EXTT7=
EXTT8=
EXTT9=
EXTT10=
EXTT11=
EXTT12=
EXTT13=
EXTT14=
EXTT15=
EXTT16=
EXTT17=
EXTT18=
EXTT19=
EXTT20=
PLAYORDER=
